<?xml version="1.0" encoding="UTF-8" standalone="no"?>
<svg
   xmlns:dc="http://purl.org/dc/elements/1.1/"
   xmlns:cc="http://creativecommons.org/ns#"
   xmlns:rdf="http://www.w3.org/1999/02/22-rdf-syntax-ns#"
   xmlns:svg="http://www.w3.org/2000/svg"
   xmlns="http://www.w3.org/2000/svg"
   xmlns:sodipodi="http://sodipodi.sourceforge.net/DTD/sodipodi-0.dtd"
   xmlns:inkscape="http://www.inkscape.org/namespaces/inkscape"
   aria-hidden="true"
   focusable="false"
   data-prefix="fas"
   data-icon="external-link-alt"
   class="svg-inline--fa fa-external-link-alt fa-w-18"
   role="img"
   viewBox="0 0 576 512"
   id="svg2"
   version="1.1"
   inkscape:version="0.91 r13725"
   sodipodi:docname="interal-link-alt-solid.svg">
  <metadata
     id="metadata10">
    <rdf:RDF>
      <cc:Work
         rdf:about="">
        <dc:format>image/svg+xml</dc:format>
        <dc:type
           rdf:resource="http://purl.org/dc/dcmitype/StillImage" />
      </cc:Work>
    </rdf:RDF>
  </metadata>
  <defs
     id="defs8" />
  <sodipodi:namedview
     pagecolor="#ffffff"
     bordercolor="#666666"
     borderopacity="1"
     objecttolerance="10"
     gridtolerance="10"
     guidetolerance="10"
     inkscape:pageopacity="0"
     inkscape:pageshadow="2"
     inkscape:window-width="2560"
     inkscape:window-height="1403"
     id="namedview6"
     showgrid="false"
     inkscape:zoom="0.4609375"
     inkscape:cx="4.8813559"
     inkscape:cy="256"
     inkscape:window-x="1920"
     inkscape:window-y="0"
     inkscape:window-maximized="1"
     inkscape:current-layer="svg2" />
  <path
     id="path4"
     style="fill:currentColor"
     d="m 407.029,270.794 c 0,0 -11.80972,9.7286 -16,16 -3.40169,5.09115 -7.02934,10.60569 -7.029,16.971 l 0,144.235 -320,0 0,-320 264,0 c 6.36487,-3.6e-4 12.46901,-2.5287 16.97,-7.029 l 16,-16 C 376.089,89.851 365.381,64 344,64 L 48,64 C 21.49,64 0,85.49 0,112 l 0,352 c 0,26.51 21.49,48 48,48 l 352,0 c 26.51,0 48,-21.49 48,-48 l 0,-176.236 c 0,-21.382 -25.8515,-32.0895 -40.971,-16.97 z m -214.82775,89.00475 0,-127.984 c 0,-21.461 25.96,-31.98 40.971,-16.971 l 35.707,35.709 243.523,-243.523 c 9.373,-9.373 24.568,-9.373 33.941,0 l 22.627,22.627 c 9.373,9.373 9.373,24.569 0,33.941 l -243.525,243.525 35.703,35.705 c 15.071,15.071 4.397,40.971 -16.971,40.971 l -127.976,0 c -13.255,0 -24,-10.745 -24,-24 z" />
</svg>
